<?xml version="1.0" encoding="utf-8"?>
<!-- Generator: Adobe Illustrator 24.3.0, SVG Export Plug-In . SVG Version: 6.00 Build 0)  -->
<svg version="1.1" id="레이어_1" xmlns="http://www.w3.org/2000/svg" xmlns:xlink="http://www.w3.org/1999/xlink" x="0px"
	 y="0px" viewBox="0 0 250.7 42" style="enable-background:new 0 0 250.7 42;" xml:space="preserve">
<style type="text/css">
	.st0{fill:#FFFFFF;}
	.st1{fill:url(#SVGID_1_);}
	.st2{fill:url(#SVGID_2_);}
	.st3{fill:url(#SVGID_3_);}
	.st4{fill:url(#SVGID_4_);}
	.st5{filter:url(#Adobe_OpacityMaskFilter);}
	.st6{filter:url(#Adobe_OpacityMaskFilter_1_);}
	.st7{mask:url(#SVGID_5_);fill:url(#SVGID_6_);}
	.st8{fill:url(#SVGID_7_);}
	.st9{filter:url(#Adobe_OpacityMaskFilter_2_);}
	.st10{filter:url(#Adobe_OpacityMaskFilter_3_);}
	.st11{mask:url(#SVGID_8_);fill:url(#SVGID_9_);}
	.st12{fill:url(#SVGID_10_);}
	.st13{filter:url(#Adobe_OpacityMaskFilter_4_);}
	.st14{filter:url(#Adobe_OpacityMaskFilter_5_);}
	.st15{mask:url(#SVGID_11_);fill:url(#SVGID_12_);}
	.st16{fill:url(#SVGID_13_);}
	.st17{filter:url(#Adobe_OpacityMaskFilter_6_);}
	.st18{filter:url(#Adobe_OpacityMaskFilter_7_);}
	.st19{mask:url(#SVGID_14_);fill:url(#SVGID_15_);}
	.st20{fill:url(#SVGID_16_);}
	.st21{filter:url(#Adobe_OpacityMaskFilter_8_);}
	.st22{filter:url(#Adobe_OpacityMaskFilter_9_);}
	.st23{mask:url(#SVGID_17_);fill:url(#SVGID_18_);}
	.st24{fill:url(#SVGID_19_);}
	.st25{filter:url(#Adobe_OpacityMaskFilter_10_);}
	.st26{filter:url(#Adobe_OpacityMaskFilter_11_);}
	.st27{mask:url(#SVGID_20_);fill:url(#SVGID_21_);}
	.st28{fill:url(#SVGID_22_);}
	.st29{filter:url(#Adobe_OpacityMaskFilter_12_);}
	.st30{filter:url(#Adobe_OpacityMaskFilter_13_);}
	.st31{mask:url(#SVGID_23_);fill:url(#SVGID_24_);}
	.st32{fill:url(#SVGID_25_);}
	.st33{filter:url(#Adobe_OpacityMaskFilter_14_);}
	.st34{filter:url(#Adobe_OpacityMaskFilter_15_);}
	.st35{mask:url(#SVGID_26_);fill:url(#SVGID_27_);}
	.st36{fill:url(#SVGID_28_);}
	.st37{fill:url(#SVGID_29_);}
	.st38{fill:none;}
	.st39{fill:url(#SVGID_30_);}
	.st40{fill:url(#SVGID_31_);}
	.st41{fill:url(#SVGID_32_);}
	.st42{filter:url(#Adobe_OpacityMaskFilter_16_);}
	.st43{filter:url(#Adobe_OpacityMaskFilter_17_);}
	.st44{mask:url(#SVGID_33_);fill:url(#SVGID_34_);}
	.st45{fill:url(#SVGID_35_);}
	.st46{filter:url(#Adobe_OpacityMaskFilter_18_);}
	.st47{filter:url(#Adobe_OpacityMaskFilter_19_);}
	.st48{mask:url(#SVGID_36_);fill:url(#SVGID_37_);}
	.st49{fill:url(#SVGID_38_);}
	.st50{filter:url(#Adobe_OpacityMaskFilter_20_);}
	.st51{filter:url(#Adobe_OpacityMaskFilter_21_);}
	.st52{mask:url(#SVGID_39_);fill:url(#SVGID_40_);}
	.st53{fill:url(#SVGID_41_);}
	.st54{filter:url(#Adobe_OpacityMaskFilter_22_);}
	.st55{filter:url(#Adobe_OpacityMaskFilter_23_);}
	.st56{mask:url(#SVGID_42_);fill:url(#SVGID_43_);}
	.st57{fill:url(#SVGID_44_);}
	.st58{filter:url(#Adobe_OpacityMaskFilter_24_);}
	.st59{filter:url(#Adobe_OpacityMaskFilter_25_);}
	.st60{mask:url(#SVGID_45_);fill:url(#SVGID_46_);}
	.st61{fill:url(#SVGID_47_);}
</style>
<g>
	<g>
		<path class="st0" d="M102.4,37v-7.1h1.9c0.3,0,0.6,0,0.9,0.1c0.3,0.1,0.5,0.2,0.7,0.3c0.2,0.1,0.3,0.3,0.5,0.6
			c0.1,0.2,0.2,0.5,0.2,0.8c0,0.4-0.1,0.8-0.3,1.1s-0.5,0.5-0.9,0.6c0.2,0,0.4,0.1,0.6,0.2c0.2,0.1,0.3,0.2,0.5,0.4
			c0.1,0.1,0.2,0.3,0.3,0.5s0.1,0.4,0.1,0.7c0,0.3-0.1,0.6-0.2,0.8s-0.3,0.4-0.5,0.6s-0.5,0.3-0.7,0.3c-0.3,0.1-0.6,0.1-0.9,0.1
			H102.4z M103.2,30.7V33h1.1c0.4,0,0.7-0.1,0.9-0.3c0.2-0.2,0.3-0.5,0.3-0.9c0-0.4-0.1-0.7-0.4-0.9s-0.6-0.3-1-0.3H103.2z
			 M103.2,33.8v2.4h1.1c0.2,0,0.4,0,0.6-0.1c0.2,0,0.3-0.1,0.5-0.2c0.1-0.1,0.2-0.2,0.3-0.4c0.1-0.1,0.1-0.3,0.1-0.5
			c0-0.2,0-0.4-0.1-0.5c-0.1-0.2-0.2-0.3-0.4-0.4s-0.3-0.2-0.5-0.2c-0.2,0-0.4-0.1-0.6-0.1H103.2z"/>
		<path class="st0" d="M118.3,29.9h0.8V37h-0.8V29.9z"/>
		<path class="st0" d="M130.9,33.4c0-0.5,0.1-1,0.3-1.4c0.2-0.4,0.4-0.8,0.8-1.2s0.7-0.6,1.1-0.8s0.9-0.3,1.4-0.3
			c0.5,0,1,0.1,1.4,0.3s0.8,0.5,1.2,0.8c0.3,0.3,0.6,0.7,0.8,1.2c0.2,0.4,0.3,0.9,0.3,1.4c0,0.5-0.1,1-0.3,1.4
			c-0.2,0.4-0.5,0.8-0.8,1.2c-0.3,0.3-0.7,0.6-1.2,0.8c-0.4,0.2-0.9,0.3-1.4,0.3c-0.5,0-1-0.1-1.4-0.3c-0.4-0.2-0.8-0.4-1.1-0.8
			c-0.3-0.3-0.6-0.7-0.8-1.2C131,34.4,130.9,33.9,130.9,33.4z M131.8,33.4c0,0.4,0.1,0.8,0.2,1.1c0.1,0.3,0.3,0.6,0.6,0.9
			c0.3,0.3,0.5,0.5,0.9,0.6s0.7,0.2,1.1,0.2c0.4,0,0.7-0.1,1.1-0.2c0.3-0.1,0.6-0.3,0.9-0.6c0.3-0.3,0.5-0.6,0.6-0.9
			c0.1-0.3,0.2-0.7,0.2-1.1s-0.1-0.8-0.2-1.1c-0.1-0.3-0.3-0.6-0.6-0.9c-0.3-0.3-0.5-0.5-0.9-0.6c-0.3-0.1-0.7-0.2-1.1-0.2
			c-0.4,0-0.7,0.1-1.1,0.2c-0.3,0.1-0.6,0.4-0.9,0.6c-0.3,0.3-0.5,0.6-0.6,0.9C131.8,32.7,131.8,33,131.8,33.4z"/>
		<path class="st0" d="M149.9,29.6c0.6,0.8,1.2,1.6,1.9,2.4c0.6,0.8,1.2,1.6,1.9,2.4c0.6-0.8,1.2-1.6,1.9-2.4
			c0.6-0.8,1.2-1.6,1.9-2.4V37h-0.8v-4.8c0-0.1,0-0.1,0-0.2c0-0.1,0-0.1,0-0.2c-0.4,0.7-0.9,1.3-1.4,1.9c-0.5,0.6-1,1.3-1.5,1.9
			c-0.5-0.6-0.9-1.2-1.4-1.8c-0.5-0.6-0.9-1.2-1.4-1.8l-0.2-0.3c0,0.1,0,0.1,0,0.2c0,0.1,0,0.1,0,0.2V37h-0.8V29.6z"/>
		<path class="st0" d="M169.3,37v-7.1h4.4v0.8h-3.5V33h3.1v0.8h-3.1v2.4h3.7V37H169.3z"/>
		<path class="st0" d="M190.4,29.9v0.8H188V37h-0.8v-6.3h-2.4v-0.8H190.4z"/>
		<path class="st0" d="M201.1,37v-7.1h1.7c0.2,0,0.5,0,0.8,0.1s0.5,0.2,0.8,0.3s0.4,0.4,0.6,0.6s0.2,0.5,0.2,0.9
			c0,0.5-0.1,0.9-0.4,1.3c-0.3,0.3-0.6,0.6-1.1,0.7l1.5,3.2h-0.9l-1.5-3.2h-0.2h-0.7V37H201.1z M201.9,33h0.9c0.3,0,0.5,0,0.7-0.1
			c0.2-0.1,0.3-0.2,0.5-0.3c0.1-0.1,0.2-0.2,0.2-0.4c0-0.1,0.1-0.3,0.1-0.4c0-0.1,0-0.3-0.1-0.4c-0.1-0.1-0.2-0.3-0.3-0.4
			c-0.1-0.1-0.3-0.2-0.5-0.2c-0.2-0.1-0.4-0.1-0.6-0.1h-0.9V33z"/>
		<path class="st0" d="M216.9,29.9h0.8V37h-0.8V29.9z"/>
		<path class="st0" d="M234.5,35.9l0.5,0.7c-0.3,0.2-0.6,0.3-0.9,0.4s-0.6,0.1-1,0.1c-0.5,0-1-0.1-1.4-0.3c-0.4-0.2-0.8-0.4-1.1-0.8
			c-0.3-0.3-0.6-0.7-0.8-1.2c-0.2-0.4-0.3-0.9-0.3-1.4s0.1-1,0.3-1.4c0.2-0.4,0.4-0.8,0.8-1.2c0.3-0.3,0.7-0.6,1.1-0.8
			c0.4-0.2,0.9-0.3,1.4-0.3c0.3,0,0.7,0,1,0.1s0.6,0.2,0.9,0.4c-0.1,0.1-0.2,0.2-0.2,0.3c-0.1,0.1-0.2,0.2-0.2,0.3
			c-0.2-0.1-0.4-0.2-0.7-0.3c-0.2-0.1-0.5-0.1-0.7-0.1c-0.4,0-0.7,0.1-1.1,0.2c-0.3,0.1-0.6,0.4-0.9,0.6s-0.5,0.6-0.6,0.9
			c-0.1,0.3-0.2,0.7-0.2,1.1s0.1,0.8,0.2,1.1c0.1,0.3,0.3,0.6,0.6,0.9c0.3,0.3,0.5,0.5,0.9,0.6c0.3,0.1,0.7,0.2,1.1,0.2
			C233.6,36.3,234.1,36.1,234.5,35.9z"/>
		<path class="st0" d="M250.3,30.6c-0.1,0.1-0.2,0.2-0.2,0.3c-0.1,0.1-0.2,0.2-0.2,0.3c-0.1-0.1-0.1-0.1-0.2-0.2s-0.2-0.1-0.3-0.2
			c-0.1-0.1-0.2-0.1-0.4-0.1s-0.3-0.1-0.4-0.1c-0.4,0-0.7,0.1-0.9,0.3c-0.2,0.2-0.3,0.5-0.3,0.8c0,0.2,0,0.3,0.1,0.4
			c0.1,0.1,0.1,0.2,0.3,0.3c0.1,0.1,0.2,0.1,0.4,0.2c0.1,0.1,0.3,0.1,0.4,0.2c0.2,0.1,0.5,0.2,0.7,0.3s0.5,0.3,0.7,0.4
			c0.2,0.2,0.4,0.4,0.5,0.6c0.1,0.3,0.2,0.6,0.2,0.9c0,0.3-0.1,0.6-0.2,0.8s-0.3,0.5-0.5,0.6c-0.2,0.2-0.4,0.3-0.7,0.4
			c-0.3,0.1-0.5,0.1-0.8,0.1c-0.3,0-0.5,0-0.7-0.1s-0.5-0.2-0.7-0.3c-0.2-0.1-0.4-0.2-0.5-0.4c-0.2-0.1-0.3-0.3-0.4-0.4l0.5-0.5
			c0.1,0.1,0.2,0.2,0.3,0.3c0.1,0.1,0.3,0.2,0.4,0.3c0.1,0.1,0.3,0.2,0.5,0.2c0.2,0.1,0.4,0.1,0.5,0.1c0.2,0,0.3,0,0.5-0.1
			c0.2-0.1,0.3-0.1,0.4-0.2c0.1-0.1,0.2-0.2,0.3-0.4c0.1-0.1,0.1-0.3,0.1-0.5c0-0.3-0.1-0.5-0.2-0.7s-0.3-0.3-0.5-0.4
			c-0.2-0.1-0.4-0.2-0.6-0.3c-0.2-0.1-0.4-0.1-0.5-0.2c-0.1,0-0.3-0.1-0.4-0.2s-0.3-0.2-0.5-0.3c-0.2-0.1-0.3-0.3-0.4-0.5
			c-0.1-0.2-0.2-0.5-0.2-0.8c0-0.2,0-0.4,0.1-0.7s0.2-0.4,0.3-0.6c0.2-0.2,0.4-0.3,0.6-0.4s0.6-0.2,0.9-0.2c0.3,0,0.6,0,0.8,0.1
			C249.6,30.1,250,30.3,250.3,30.6z"/>
	</g>
	<g>
		<g>
			
				<linearGradient id="SVGID_1_" gradientUnits="userSpaceOnUse" x1="2824.7542" y1="-637.1418" x2="2785.415" y2="-639.8549" gradientTransform="matrix(-1 0 0 -1 2822.2424 -608.3406)">
				<stop  offset="5.618000e-03" style="stop-color:#FFFFFF"/>
				<stop  offset="0.1102" style="stop-color:#F2F3F3"/>
				<stop  offset="0.3518" style="stop-color:#DADCDC"/>
				<stop  offset="0.5" style="stop-color:#D1D3D4"/>
				<stop  offset="0.6964" style="stop-color:#BCBEBF"/>
				<stop  offset="1" style="stop-color:#939598"/>
			</linearGradient>
			<path class="st1" d="M0,23v-1.6c0,0.9,0.1,1.7,0.2,2.5c2,11.8,18.1,10.5,18.1,10.5c0.3,0,0.5,0,0.8,0c3.1,0,5.8-1.1,7.9-3.4
				c2-2.1,3.1-4.6,3.3-7.5c0-0.2,0-0.4,0-0.6v-3.7c0,1.3,0.1,2.5,0.2,3.6c0.7,8.5,3.8,11.7,3.8,11.7c-1.8,2.3-4,4.1-6.7,5.4
				c-0.8,0.4-1.6,0.7-2.4,1c-2,0.7-4,1-6.1,1c-5.2,0-9.7-1.9-13.5-5.6c-3.4-3.3-5.2-7.3-5.6-11.8c0,0,0-0.1,0-0.1c0,0,0,0,0,0
				C0,24,0,23.5,0,23z"/>
			
				<linearGradient id="SVGID_2_" gradientUnits="userSpaceOnUse" x1="2817.6677" y1="-619.051" x2="2810.7966" y2="-646.4091" gradientTransform="matrix(-1 0 0 -1 2822.2424 -608.3406)">
				<stop  offset="5.618000e-03" style="stop-color:#FFFFFF"/>
				<stop  offset="0.1102" style="stop-color:#F2F3F3"/>
				<stop  offset="0.3518" style="stop-color:#DADCDC"/>
				<stop  offset="0.5" style="stop-color:#D1D3D4"/>
				<stop  offset="0.6964" style="stop-color:#BCBEBF"/>
				<stop  offset="1" style="stop-color:#939598"/>
			</linearGradient>
			<path class="st2" d="M0,21.5V4.2c2.2,0,4,0.8,5.6,2.3c1.6,1.6,2.3,3.4,2.3,5.6V23c0,0.5,0,1,0.1,1.5v0c0.3,2.5,1.4,4.7,3.2,6.5
				c2,2.1,4.3,3.2,7.1,3.3C18.3,34.4,0,36,0,21.5z"/>
			
				<linearGradient id="SVGID_3_" gradientUnits="userSpaceOnUse" x1="2772.7864" y1="-612.3924" x2="2772.7864" y2="-650.2371" gradientTransform="matrix(-1 0 0 -1 2822.2424 -608.3406)">
				<stop  offset="5.618000e-03" style="stop-color:#FFFFFF"/>
				<stop  offset="0.1102" style="stop-color:#F2F3F3"/>
				<stop  offset="0.3518" style="stop-color:#DADCDC"/>
				<stop  offset="0.5" style="stop-color:#D1D3D4"/>
				<stop  offset="0.6964" style="stop-color:#BCBEBF"/>
				<stop  offset="1" style="stop-color:#939598"/>
			</linearGradient>
			<path class="st3" d="M30.3,19.2V4.1c1.1,0,2.1,0.2,3,0.6c0.9,0.4,1.8,1,2.6,1.8c1.6,1.6,2.3,3.4,2.3,5.6v10.9
				c0,1.4,0.2,2.7,0.6,3.9c0,0,0,0,0,0c0.5,1.5,1.4,2.9,2.6,4.1c1.8,1.9,4,3,6.6,3.3c0.4,0.1,0.9,0.1,1.4,0.1c0,0,0.3,0,0.8,0
				c0,0,0.1,0,0.1,0c0.1,0,0.1,0,0.1,0C54.2,34,66.5,32,68.6,18.8V23c0,0.1,0,0.3,0,0.4c0,0,0,0.1,0,0.1c-0.1,5-2,9.2-5.6,12.7
				c-3.8,3.7-8.3,5.6-13.5,5.6c-1.3,0-2.5-0.1-3.7-0.4c-1.1-0.2-2.2-0.5-3.2-0.9c-0.3-0.1-0.6-0.3-1-0.4c0,0,0,0,0,0
				c-0.2-0.1-0.3-0.2-0.5-0.2c-2.7-1.3-4.9-3.1-6.8-5.5C34.2,34.5,30.4,30.4,30.3,19.2z"/>
			
				<linearGradient id="SVGID_4_" gradientUnits="userSpaceOnUse" x1="2756.9277" y1="-614.7349" x2="2764.4414" y2="-641.3832" gradientTransform="matrix(-1 0 0 -1 2822.2424 -608.3406)">
				<stop  offset="5.618000e-03" style="stop-color:#FFFFFF"/>
				<stop  offset="0.1102" style="stop-color:#F2F3F3"/>
				<stop  offset="0.3518" style="stop-color:#DADCDC"/>
				<stop  offset="0.5" style="stop-color:#D1D3D4"/>
				<stop  offset="0.6964" style="stop-color:#BCBEBF"/>
				<stop  offset="1" style="stop-color:#939598"/>
			</linearGradient>
			<path class="st4" d="M50.5,34.3c1.3-0.2,4.6-0.8,6.9-3.2c2.1-2.3,3.3-4.9,3.3-8.1V12.1c0-2.2,0.8-4.1,2.3-5.6
				c1.5-1.5,3.4-2.3,5.6-2.3v14.7c-2,12.4-13,14.9-17.4,15.4c0,0-0.1,0-0.1,0C50.9,34.3,50.8,34.3,50.5,34.3
				C50.5,34.3,50.5,34.3,50.5,34.3z"/>
			<defs>
				<filter id="Adobe_OpacityMaskFilter" filterUnits="userSpaceOnUse" x="51.2" y="14.9" width="17.4" height="19.4">
					<feFlood  style="flood-color:white;flood-opacity:1" result="back"/>
					<feBlend  in="SourceGraphic" in2="back" mode="normal"/>
				</filter>
			</defs>
			<mask maskUnits="userSpaceOnUse" x="51.2" y="14.9" width="17.4" height="19.4" id="SVGID_5_">
				<g class="st5">
					<defs>
						<filter id="Adobe_OpacityMaskFilter_1_" filterUnits="userSpaceOnUse" x="51.2" y="14.9" width="17.4" height="19.4">
							<feFlood  style="flood-color:white;flood-opacity:1" result="back"/>
							<feBlend  in="SourceGraphic" in2="back" mode="normal"/>
						</filter>
					</defs>
					<mask maskUnits="userSpaceOnUse" x="51.2" y="14.9" width="17.4" height="19.4" id="SVGID_5_">
						<g class="st6">
						</g>
					</mask>
					
						<linearGradient id="SVGID_6_" gradientUnits="userSpaceOnUse" x1="2765.7126" y1="-641.0993" x2="2750.7607" y2="-622.0117" gradientTransform="matrix(-1 0 0 -1 2822.2424 -608.3406)">
						<stop  offset="0" style="stop-color:#808080"/>
						<stop  offset="0.1774" style="stop-color:#7C7C7C"/>
						<stop  offset="0.3547" style="stop-color:#6F6F6F"/>
						<stop  offset="0.5321" style="stop-color:#5B5B5B"/>
						<stop  offset="0.7097" style="stop-color:#3F3F3F"/>
						<stop  offset="0.8857" style="stop-color:#1C1C1C"/>
						<stop  offset="1" style="stop-color:#000000"/>
					</linearGradient>
					<path class="st7" d="M51.2,34.2c2.7-0.4,12.6-2.9,17.4-19.4v3.9C66.6,31.3,55.6,33.7,51.2,34.2z"/>
				</g>
			</mask>
			
				<linearGradient id="SVGID_7_" gradientUnits="userSpaceOnUse" x1="2765.7126" y1="-641.0993" x2="2750.7607" y2="-622.0117" gradientTransform="matrix(-1 0 0 -1 2822.2424 -608.3406)">
				<stop  offset="0" style="stop-color:#000000"/>
				<stop  offset="0.1255" style="stop-color:#040404"/>
				<stop  offset="0.251" style="stop-color:#101010"/>
				<stop  offset="0.3767" style="stop-color:#242424"/>
				<stop  offset="0.5025" style="stop-color:#404040"/>
				<stop  offset="0.6284" style="stop-color:#656565"/>
				<stop  offset="0.7545" style="stop-color:#919191"/>
				<stop  offset="0.8783" style="stop-color:#C5C5C5"/>
				<stop  offset="1" style="stop-color:#FFFFFF"/>
			</linearGradient>
			<path class="st8" d="M51.2,34.2c2.7-0.4,12.6-2.9,17.4-19.4v3.9C66.6,31.3,55.6,33.7,51.2,34.2z"/>
			<defs>
				<filter id="Adobe_OpacityMaskFilter_2_" filterUnits="userSpaceOnUse" x="25.2" y="22.9" width="9.1" height="18.1">
					<feFlood  style="flood-color:white;flood-opacity:1" result="back"/>
					<feBlend  in="SourceGraphic" in2="back" mode="normal"/>
				</filter>
			</defs>
			<mask maskUnits="userSpaceOnUse" x="25.2" y="22.9" width="9.1" height="18.1" id="SVGID_8_">
				<g class="st9">
					<defs>
						<filter id="Adobe_OpacityMaskFilter_3_" filterUnits="userSpaceOnUse" x="25.2" y="22.9" width="9.1" height="18.1">
							<feFlood  style="flood-color:white;flood-opacity:1" result="back"/>
							<feBlend  in="SourceGraphic" in2="back" mode="normal"/>
						</filter>
					</defs>
					<mask maskUnits="userSpaceOnUse" x="25.2" y="22.9" width="9.1" height="18.1" id="SVGID_8_">
						<g class="st10">
						</g>
					</mask>
					
						<linearGradient id="SVGID_9_" gradientUnits="userSpaceOnUse" x1="2796.9316" y1="-640.1162" x2="2787.2673" y2="-640.7827" gradientTransform="matrix(-1 0 0 -1 2822.2424 -608.3406)">
						<stop  offset="0" style="stop-color:#808080"/>
						<stop  offset="0.1774" style="stop-color:#7C7C7C"/>
						<stop  offset="0.3547" style="stop-color:#6F6F6F"/>
						<stop  offset="0.5321" style="stop-color:#5B5B5B"/>
						<stop  offset="0.7097" style="stop-color:#3F3F3F"/>
						<stop  offset="0.8857" style="stop-color:#1C1C1C"/>
						<stop  offset="1" style="stop-color:#000000"/>
					</linearGradient>
					<path class="st11" d="M30.3,23l0.2-0.1c0.7,8.5,3.8,11.7,3.8,11.7c-1.8,2.3-4,4.1-6.7,5.4c-0.8,0.4-1.6,0.7-2.4,1
						C31.7,38.1,30.3,23,30.3,23z"/>
				</g>
			</mask>
			
				<linearGradient id="SVGID_10_" gradientUnits="userSpaceOnUse" x1="2796.9316" y1="-640.1162" x2="2787.2673" y2="-640.7827" gradientTransform="matrix(-1 0 0 -1 2822.2424 -608.3406)">
				<stop  offset="0" style="stop-color:#000000"/>
				<stop  offset="0.1255" style="stop-color:#040404"/>
				<stop  offset="0.251" style="stop-color:#101010"/>
				<stop  offset="0.3767" style="stop-color:#242424"/>
				<stop  offset="0.5025" style="stop-color:#404040"/>
				<stop  offset="0.6284" style="stop-color:#656565"/>
				<stop  offset="0.7545" style="stop-color:#919191"/>
				<stop  offset="0.8783" style="stop-color:#C5C5C5"/>
				<stop  offset="1" style="stop-color:#FFFFFF"/>
			</linearGradient>
			<path class="st12" d="M30.3,23l0.2-0.1c0.7,8.5,3.8,11.7,3.8,11.7c-1.8,2.3-4,4.1-6.7,5.4c-0.8,0.4-1.6,0.7-2.4,1
				C31.7,38.1,30.3,23,30.3,23z"/>
			<defs>
				<filter id="Adobe_OpacityMaskFilter_4_" filterUnits="userSpaceOnUse" x="30.3" y="4.1" width="11.2" height="36.1">
					<feFlood  style="flood-color:white;flood-opacity:1" result="back"/>
					<feBlend  in="SourceGraphic" in2="back" mode="normal"/>
				</filter>
			</defs>
			<mask maskUnits="userSpaceOnUse" x="30.3" y="4.1" width="11.2" height="36.1" id="SVGID_11_">
				<g class="st13">
					<defs>
						<filter id="Adobe_OpacityMaskFilter_5_" filterUnits="userSpaceOnUse" x="30.3" y="4.1" width="11.2" height="36.1">
							<feFlood  style="flood-color:white;flood-opacity:1" result="back"/>
							<feBlend  in="SourceGraphic" in2="back" mode="normal"/>
						</filter>
					</defs>
					<mask maskUnits="userSpaceOnUse" x="30.3" y="4.1" width="11.2" height="36.1" id="SVGID_11_">
						<g class="st14">
						</g>
					</mask>
					
						<linearGradient id="SVGID_12_" gradientUnits="userSpaceOnUse" x1="2791.4817" y1="-612.1081" x2="2786.6316" y2="-638.2067" gradientTransform="matrix(-1 0 0 -1 2822.2424 -608.3406)">
						<stop  offset="0" style="stop-color:#000000"/>
						<stop  offset="0.1328" style="stop-color:#1B1B1B"/>
						<stop  offset="0.2778" style="stop-color:#313131"/>
						<stop  offset="0.4376" style="stop-color:#414141"/>
						<stop  offset="0.6214" style="stop-color:#4A4A4A"/>
						<stop  offset="0.8847" style="stop-color:#4D4D4D"/>
					</linearGradient>
					<path class="st15" d="M30.3,19.2V4.1c0,0,4.5,2.9,4.3,9.8c-0.1,6.6-0.2,22.6,6.9,26.3c-0.2-0.1-0.3-0.2-0.5-0.2
						c-2.7-1.3-4.9-3.1-6.8-5.5C34.2,34.5,30.4,30.4,30.3,19.2z"/>
				</g>
			</mask>
			
				<linearGradient id="SVGID_13_" gradientUnits="userSpaceOnUse" x1="2791.4817" y1="-612.1081" x2="2786.6316" y2="-638.2067" gradientTransform="matrix(-1 0 0 -1 2822.2424 -608.3406)">
				<stop  offset="0" style="stop-color:#808285"/>
				<stop  offset="4.030292e-02" style="stop-color:#8F9194"/>
				<stop  offset="0.1465" style="stop-color:#B1B3B4"/>
				<stop  offset="0.2598" style="stop-color:#CECED0"/>
				<stop  offset="0.3809" style="stop-color:#E4E4E5"/>
				<stop  offset="0.5135" style="stop-color:#F3F3F4"/>
				<stop  offset="0.6662" style="stop-color:#FCFCFC"/>
				<stop  offset="0.8847" style="stop-color:#FFFFFF"/>
			</linearGradient>
			<path class="st16" d="M30.3,19.2V4.1c0,0,4.5,2.9,4.3,9.8c-0.1,6.6-0.2,22.6,6.9,26.3c-0.2-0.1-0.3-0.2-0.5-0.2
				c-2.7-1.3-4.9-3.1-6.8-5.5C34.2,34.5,30.4,30.4,30.3,19.2z"/>
			<defs>
				<filter id="Adobe_OpacityMaskFilter_6_" filterUnits="userSpaceOnUse" x="45.7" y="18.8" width="22.8" height="23.1">
					<feFlood  style="flood-color:white;flood-opacity:1" result="back"/>
					<feBlend  in="SourceGraphic" in2="back" mode="normal"/>
				</filter>
			</defs>
			<mask maskUnits="userSpaceOnUse" x="45.7" y="18.8" width="22.8" height="23.1" id="SVGID_14_">
				<g class="st17">
					<defs>
						<filter id="Adobe_OpacityMaskFilter_7_" filterUnits="userSpaceOnUse" x="45.7" y="18.8" width="22.8" height="23.1">
							<feFlood  style="flood-color:white;flood-opacity:1" result="back"/>
							<feBlend  in="SourceGraphic" in2="back" mode="normal"/>
						</filter>
					</defs>
					<mask maskUnits="userSpaceOnUse" x="45.7" y="18.8" width="22.8" height="23.1" id="SVGID_14_">
						<g class="st18">
						</g>
					</mask>
					
						<linearGradient id="SVGID_15_" gradientUnits="userSpaceOnUse" x1="2768.7827" y1="-648.6913" x2="2752.4727" y2="-626.6247" gradientTransform="matrix(-1 0 0 -1 2822.2424 -608.3406)">
						<stop  offset="0" style="stop-color:#000000"/>
						<stop  offset="0.1328" style="stop-color:#1B1B1B"/>
						<stop  offset="0.2778" style="stop-color:#313131"/>
						<stop  offset="0.4376" style="stop-color:#414141"/>
						<stop  offset="0.6214" style="stop-color:#4A4A4A"/>
						<stop  offset="0.8847" style="stop-color:#4D4D4D"/>
					</linearGradient>
					<path class="st19" d="M45.7,41.5c1.1-1.2,2.6-2.5,2.6-2.5c19.5-2.2,20.3-20.2,20.3-20.2V23c0,0.1,0,0.3,0,0.4c0,0,0,0.1,0,0.1
						c-0.1,5-2,9.2-5.6,12.7c-3.8,3.7-8.3,5.6-13.5,5.6C48.2,41.9,46.9,41.8,45.7,41.5z"/>
				</g>
			</mask>
			
				<linearGradient id="SVGID_16_" gradientUnits="userSpaceOnUse" x1="2768.7827" y1="-648.6913" x2="2752.4727" y2="-626.6247" gradientTransform="matrix(-1 0 0 -1 2822.2424 -608.3406)">
				<stop  offset="0" style="stop-color:#808285"/>
				<stop  offset="4.030292e-02" style="stop-color:#8F9194"/>
				<stop  offset="0.1465" style="stop-color:#B1B3B4"/>
				<stop  offset="0.2598" style="stop-color:#CECED0"/>
				<stop  offset="0.3809" style="stop-color:#E4E4E5"/>
				<stop  offset="0.5135" style="stop-color:#F3F3F4"/>
				<stop  offset="0.6662" style="stop-color:#FCFCFC"/>
				<stop  offset="0.8847" style="stop-color:#FFFFFF"/>
			</linearGradient>
			<path class="st20" d="M45.7,41.5c1.1-1.2,2.6-2.5,2.6-2.5c19.5-2.2,20.3-20.2,20.3-20.2V23c0,0.1,0,0.3,0,0.4c0,0,0,0.1,0,0.1
				c-0.1,5-2,9.2-5.6,12.7c-3.8,3.7-8.3,5.6-13.5,5.6C48.2,41.9,46.9,41.8,45.7,41.5z"/>
			<defs>
				<filter id="Adobe_OpacityMaskFilter_8_" filterUnits="userSpaceOnUse" x="30.3" y="4.1" width="7.9" height="14.8">
					<feFlood  style="flood-color:white;flood-opacity:1" result="back"/>
					<feBlend  in="SourceGraphic" in2="back" mode="normal"/>
				</filter>
			</defs>
			<mask maskUnits="userSpaceOnUse" x="30.3" y="4.1" width="7.9" height="14.8" id="SVGID_17_">
				<g class="st21">
					<defs>
						<filter id="Adobe_OpacityMaskFilter_9_" filterUnits="userSpaceOnUse" x="30.3" y="4.1" width="7.9" height="14.8">
							<feFlood  style="flood-color:white;flood-opacity:1" result="back"/>
							<feBlend  in="SourceGraphic" in2="back" mode="normal"/>
						</filter>
					</defs>
					<mask maskUnits="userSpaceOnUse" x="30.3" y="4.1" width="7.9" height="14.8" id="SVGID_17_">
						<g class="st22">
						</g>
					</mask>
					
						<linearGradient id="SVGID_18_" gradientUnits="userSpaceOnUse" x1="2790.2876" y1="-612.0961" x2="2781.5713" y2="-626.6656" gradientTransform="matrix(-1 0 0 -1 2822.2424 -608.3406)">
						<stop  offset="0" style="stop-color:#808080"/>
						<stop  offset="0.1774" style="stop-color:#7C7C7C"/>
						<stop  offset="0.3547" style="stop-color:#6F6F6F"/>
						<stop  offset="0.5321" style="stop-color:#5B5B5B"/>
						<stop  offset="0.7097" style="stop-color:#3F3F3F"/>
						<stop  offset="0.8857" style="stop-color:#1C1C1C"/>
						<stop  offset="1" style="stop-color:#000000"/>
					</linearGradient>
					<path class="st23" d="M30.3,4.1c1.1,0,2.1,0.2,3,0.6c0.9,0.4,1.8,1,2.6,1.8c1.6,1.6,2.3,3.4,2.3,5.6v6.8
						C37.6,6.3,30.3,4.1,30.3,4.1z"/>
				</g>
			</mask>
			
				<linearGradient id="SVGID_19_" gradientUnits="userSpaceOnUse" x1="2790.2876" y1="-612.0961" x2="2781.5713" y2="-626.6656" gradientTransform="matrix(-1 0 0 -1 2822.2424 -608.3406)">
				<stop  offset="0" style="stop-color:#808285"/>
				<stop  offset="0.1777" style="stop-color:#848689"/>
				<stop  offset="0.3554" style="stop-color:#909294"/>
				<stop  offset="0.5332" style="stop-color:#A4A5A8"/>
				<stop  offset="0.7111" style="stop-color:#C0C1C3"/>
				<stop  offset="0.8874" style="stop-color:#E4E4E5"/>
				<stop  offset="1" style="stop-color:#FFFFFF"/>
			</linearGradient>
			<path class="st24" d="M30.3,4.1c1.1,0,2.1,0.2,3,0.6c0.9,0.4,1.8,1,2.6,1.8c1.6,1.6,2.3,3.4,2.3,5.6v6.8
				C37.6,6.3,30.3,4.1,30.3,4.1z"/>
			<defs>
				<filter id="Adobe_OpacityMaskFilter_10_" filterUnits="userSpaceOnUse" x="0" y="19.6" width="18.3" height="14.9">
					<feFlood  style="flood-color:white;flood-opacity:1" result="back"/>
					<feBlend  in="SourceGraphic" in2="back" mode="normal"/>
				</filter>
			</defs>
			<mask maskUnits="userSpaceOnUse" x="0" y="19.6" width="18.3" height="14.9" id="SVGID_20_">
				<g class="st25">
					<defs>
						<filter id="Adobe_OpacityMaskFilter_11_" filterUnits="userSpaceOnUse" x="0" y="19.6" width="18.3" height="14.9">
							<feFlood  style="flood-color:white;flood-opacity:1" result="back"/>
							<feBlend  in="SourceGraphic" in2="back" mode="normal"/>
						</filter>
					</defs>
					<mask maskUnits="userSpaceOnUse" x="0" y="19.6" width="18.3" height="14.9" id="SVGID_20_">
						<g class="st26">
						</g>
					</mask>
					
						<linearGradient id="SVGID_21_" gradientUnits="userSpaceOnUse" x1="2803.0286" y1="-641.8701" x2="2822.3708" y2="-632.7079" gradientTransform="matrix(-1 0 0 -1 2822.2424 -608.3406)">
						<stop  offset="0" style="stop-color:#808080"/>
						<stop  offset="0.1774" style="stop-color:#7C7C7C"/>
						<stop  offset="0.3547" style="stop-color:#6F6F6F"/>
						<stop  offset="0.5321" style="stop-color:#5B5B5B"/>
						<stop  offset="0.7097" style="stop-color:#3F3F3F"/>
						<stop  offset="0.8857" style="stop-color:#1C1C1C"/>
						<stop  offset="1" style="stop-color:#000000"/>
					</linearGradient>
					<path class="st27" d="M0,21.5v-1.9C3.5,34,18.3,34.4,18.3,34.4S0,36,0,21.5z"/>
				</g>
			</mask>
			
				<linearGradient id="SVGID_22_" gradientUnits="userSpaceOnUse" x1="2803.0286" y1="-641.8701" x2="2822.3708" y2="-632.7079" gradientTransform="matrix(-1 0 0 -1 2822.2424 -608.3406)">
				<stop  offset="0" style="stop-color:#000000"/>
				<stop  offset="0.1255" style="stop-color:#040404"/>
				<stop  offset="0.251" style="stop-color:#101010"/>
				<stop  offset="0.3767" style="stop-color:#242424"/>
				<stop  offset="0.5025" style="stop-color:#404040"/>
				<stop  offset="0.6284" style="stop-color:#656565"/>
				<stop  offset="0.7545" style="stop-color:#919191"/>
				<stop  offset="0.8783" style="stop-color:#C5C5C5"/>
				<stop  offset="1" style="stop-color:#FFFFFF"/>
			</linearGradient>
			<path class="st28" d="M0,21.5v-1.9C3.5,34,18.3,34.4,18.3,34.4S0,36,0,21.5z"/>
			<defs>
				<filter id="Adobe_OpacityMaskFilter_12_" filterUnits="userSpaceOnUse" x="0.1" y="23.6" width="30.3" height="14.3">
					<feFlood  style="flood-color:white;flood-opacity:1" result="back"/>
					<feBlend  in="SourceGraphic" in2="back" mode="normal"/>
				</filter>
			</defs>
			<mask maskUnits="userSpaceOnUse" x="0.1" y="23.6" width="30.3" height="14.3" id="SVGID_23_">
				<g class="st29">
					<defs>
						<filter id="Adobe_OpacityMaskFilter_13_" filterUnits="userSpaceOnUse" x="0.1" y="23.6" width="30.3" height="14.3">
							<feFlood  style="flood-color:white;flood-opacity:1" result="back"/>
							<feBlend  in="SourceGraphic" in2="back" mode="normal"/>
						</filter>
					</defs>
					<mask maskUnits="userSpaceOnUse" x="0.1" y="23.6" width="30.3" height="14.3" id="SVGID_23_">
						<g class="st30">
						</g>
					</mask>
					
						<linearGradient id="SVGID_24_" gradientUnits="userSpaceOnUse" x1="2793.7803" y1="-640.968" x2="2813.5166" y2="-635.508" gradientTransform="matrix(-1 0 0 -1 2822.2424 -608.3406)">
						<stop  offset="0" style="stop-color:#000000"/>
						<stop  offset="0.1328" style="stop-color:#1B1B1B"/>
						<stop  offset="0.2778" style="stop-color:#313131"/>
						<stop  offset="0.4376" style="stop-color:#414141"/>
						<stop  offset="0.6214" style="stop-color:#4A4A4A"/>
						<stop  offset="0.8847" style="stop-color:#4D4D4D"/>
					</linearGradient>
					<path class="st31" d="M0.1,24.5L0.1,24.5L0.2,24c2,11.8,18.1,10.5,18.1,10.5c0.3,0,0.5,0,0.8,0c3.1,0,5.8-1.1,7.9-3.4
						c2-2.1,3.1-4.6,3.3-7.5l0.1,0.1c-1,13.8-14.1,16.2-21.7,12.8C1.5,33.3,0.2,25.6,0.1,24.5C0.1,24.6,0.1,24.5,0.1,24.5
						C0.1,24.5,0.1,24.5,0.1,24.5z"/>
				</g>
			</mask>
			
				<linearGradient id="SVGID_25_" gradientUnits="userSpaceOnUse" x1="2793.7803" y1="-640.968" x2="2813.5166" y2="-635.508" gradientTransform="matrix(-1 0 0 -1 2822.2424 -608.3406)">
				<stop  offset="0" style="stop-color:#808285"/>
				<stop  offset="4.030292e-02" style="stop-color:#8F9194"/>
				<stop  offset="0.1465" style="stop-color:#B1B3B4"/>
				<stop  offset="0.2598" style="stop-color:#CECED0"/>
				<stop  offset="0.3809" style="stop-color:#E4E4E5"/>
				<stop  offset="0.5135" style="stop-color:#F3F3F4"/>
				<stop  offset="0.6662" style="stop-color:#FCFCFC"/>
				<stop  offset="0.8847" style="stop-color:#FFFFFF"/>
			</linearGradient>
			<path class="st32" d="M0.1,24.5L0.1,24.5L0.2,24c2,11.8,18.1,10.5,18.1,10.5c0.3,0,0.5,0,0.8,0c3.1,0,5.8-1.1,7.9-3.4
				c2-2.1,3.1-4.6,3.3-7.5l0.1,0.1c-1,13.8-14.1,16.2-21.7,12.8C1.5,33.3,0.2,25.6,0.1,24.5C0.1,24.6,0.1,24.5,0.1,24.5
				C0.1,24.5,0.1,24.5,0.1,24.5z"/>
			<defs>
				<filter id="Adobe_OpacityMaskFilter_14_" filterUnits="userSpaceOnUse" x="0" y="4.2" width="7.9" height="16.4">
					<feFlood  style="flood-color:white;flood-opacity:1" result="back"/>
					<feBlend  in="SourceGraphic" in2="back" mode="normal"/>
				</filter>
			</defs>
			<mask maskUnits="userSpaceOnUse" x="0" y="4.2" width="7.9" height="16.4" id="SVGID_26_">
				<g class="st33">
					<defs>
						<filter id="Adobe_OpacityMaskFilter_15_" filterUnits="userSpaceOnUse" x="0" y="4.2" width="7.9" height="16.4">
							<feFlood  style="flood-color:white;flood-opacity:1" result="back"/>
							<feBlend  in="SourceGraphic" in2="back" mode="normal"/>
						</filter>
					</defs>
					<mask maskUnits="userSpaceOnUse" x="0" y="4.2" width="7.9" height="16.4" id="SVGID_26_">
						<g class="st34">
						</g>
					</mask>
					
						<linearGradient id="SVGID_27_" gradientUnits="userSpaceOnUse" x1="2819.7542" y1="-622.7266" x2="2814.6133" y2="-615.7713" gradientTransform="matrix(-1 0 0 -1 2822.2424 -608.3406)">
						<stop  offset="0" style="stop-color:#000000"/>
						<stop  offset="0.1328" style="stop-color:#1B1B1B"/>
						<stop  offset="0.2778" style="stop-color:#313131"/>
						<stop  offset="0.4376" style="stop-color:#414141"/>
						<stop  offset="0.6214" style="stop-color:#4A4A4A"/>
						<stop  offset="0.8847" style="stop-color:#4D4D4D"/>
					</linearGradient>
					<path class="st35" d="M0,4.2c2.2,0,4,0.8,5.6,2.3c1.6,1.6,2.3,3.4,2.3,5.6v8.5C7,8.3,0,4.2,0,4.2z"/>
				</g>
			</mask>
			
				<linearGradient id="SVGID_28_" gradientUnits="userSpaceOnUse" x1="2819.7542" y1="-622.7266" x2="2814.6133" y2="-615.7713" gradientTransform="matrix(-1 0 0 -1 2822.2424 -608.3406)">
				<stop  offset="0" style="stop-color:#808285"/>
				<stop  offset="4.030292e-02" style="stop-color:#8F9194"/>
				<stop  offset="0.1465" style="stop-color:#B1B3B4"/>
				<stop  offset="0.2598" style="stop-color:#CECED0"/>
				<stop  offset="0.3809" style="stop-color:#E4E4E5"/>
				<stop  offset="0.5135" style="stop-color:#F3F3F4"/>
				<stop  offset="0.6662" style="stop-color:#FCFCFC"/>
				<stop  offset="0.8847" style="stop-color:#FFFFFF"/>
			</linearGradient>
			<path class="st36" d="M0,4.2c2.2,0,4,0.8,5.6,2.3c1.6,1.6,2.3,3.4,2.3,5.6v8.5C7,8.3,0,4.2,0,4.2z"/>
		</g>
		<g>
			<linearGradient id="SVGID_29_" gradientUnits="userSpaceOnUse" x1="80.7557" y1="43.1959" x2="71.2092" y2="24.0246">
				<stop  offset="5.618000e-03" style="stop-color:#D1D3D4"/>
				<stop  offset="0.1873" style="stop-color:#B4B6B8"/>
				<stop  offset="0.3811" style="stop-color:#9C9EA1"/>
				<stop  offset="0.5" style="stop-color:#939598"/>
				<stop  offset="0.61" style="stop-color:#7F8083"/>
				<stop  offset="0.8367" style="stop-color:#4C4A4B"/>
				<stop  offset="1" style="stop-color:#231F20"/>
			</linearGradient>
			<path class="st37" d="M79.2,41.2C79.2,41.2,79.2,41.2,79.2,41.2c-0.9-0.4-1.7-1-2.5-1.8c-1.7-1.7-2.6-3.8-2.6-6.2v-6.7h0
				c0,0,0,0,0,0C75,35.9,82.9,42,82.9,42C81.6,42,80.3,41.7,79.2,41.2z"/>
			<path class="st38" d="M82.9,21.1V22C82.9,21.7,82.9,21.4,82.9,21.1z"/>
			<linearGradient id="SVGID_30_" gradientUnits="userSpaceOnUse" x1="74.4571" y1="4.2121" x2="82.2925" y2="41.7436">
				<stop  offset="5.618000e-03" style="stop-color:#FFFFFF"/>
				<stop  offset="0.1102" style="stop-color:#F2F3F3"/>
				<stop  offset="0.3518" style="stop-color:#DADCDC"/>
				<stop  offset="0.5" style="stop-color:#D1D3D4"/>
				<stop  offset="0.6964" style="stop-color:#BCBEBF"/>
				<stop  offset="1" style="stop-color:#939598"/>
			</linearGradient>
			<path class="st39" d="M82.9,21.1V42c0,0-4-3-6.6-8.1c-1.1-2.1-2-4.6-2.2-7.4c0,0,0,0,0,0V0h0c0,0,0,0,0,0
				C74.4,0.5,82.6,13.1,82.9,21.1z"/>
			<linearGradient id="SVGID_31_" gradientUnits="userSpaceOnUse" x1="77.5716" y1="3.5618" x2="85.4068" y2="41.0926">
				<stop  offset="5.618000e-03" style="stop-color:#00D4C2"/>
				<stop  offset="0.1223" style="stop-color:#00C5C4"/>
				<stop  offset="0.3563" style="stop-color:#00ADC8"/>
				<stop  offset="0.5" style="stop-color:#00A4C9"/>
				<stop  offset="0.6116" style="stop-color:#008FBA"/>
				<stop  offset="0.8417" style="stop-color:#005793"/>
				<stop  offset="1" style="stop-color:#002E76"/>
			</linearGradient>
			<path class="st40" d="M82.9,17.2C82.4,7.3,74.1,0,74.1,0c0,0,8.5,12.9,8.8,21.1V17.2z"/>
			<linearGradient id="SVGID_32_" gradientUnits="userSpaceOnUse" x1="76.8814" y1="-0.7994" x2="84.4761" y2="19.7832">
				<stop  offset="5.618000e-03" style="stop-color:#D1D3D4"/>
				<stop  offset="0.1873" style="stop-color:#B4B6B8"/>
				<stop  offset="0.3811" style="stop-color:#9C9EA1"/>
				<stop  offset="0.5" style="stop-color:#939598"/>
				<stop  offset="0.61" style="stop-color:#7F8083"/>
				<stop  offset="0.8367" style="stop-color:#4C4A4B"/>
				<stop  offset="1" style="stop-color:#231F20"/>
			</linearGradient>
			<path class="st41" d="M82.9,8.8v12.3c-0.3-8-8.4-20.4-8.8-21.1c0,0,0,0,0,0c2.4,0,4.5,0.9,6.2,2.6C82,4.3,82.9,6.4,82.9,8.8z"/>
			<defs>
				<filter id="Adobe_OpacityMaskFilter_16_" filterUnits="userSpaceOnUse" x="74.1" y="0" width="5.4" height="35.4">
					<feFlood  style="flood-color:white;flood-opacity:1" result="back"/>
					<feBlend  in="SourceGraphic" in2="back" mode="normal"/>
				</filter>
			</defs>
			<mask maskUnits="userSpaceOnUse" x="74.1" y="0" width="5.4" height="35.4" id="SVGID_33_">
				<g class="st42">
					<defs>
						<filter id="Adobe_OpacityMaskFilter_17_" filterUnits="userSpaceOnUse" x="74.1" y="0" width="5.4" height="35.4">
							<feFlood  style="flood-color:white;flood-opacity:1" result="back"/>
							<feBlend  in="SourceGraphic" in2="back" mode="normal"/>
						</filter>
					</defs>
					<mask maskUnits="userSpaceOnUse" x="74.1" y="0" width="5.4" height="35.4" id="SVGID_33_">
						<g class="st43">
						</g>
					</mask>
					<linearGradient id="SVGID_34_" gradientUnits="userSpaceOnUse" x1="77.7562" y1="34.4229" x2="74.4303" y2="2.2183">
						<stop  offset="0" style="stop-color:#000000"/>
						<stop  offset="0.1328" style="stop-color:#1B1B1B"/>
						<stop  offset="0.2778" style="stop-color:#313131"/>
						<stop  offset="0.4376" style="stop-color:#414141"/>
						<stop  offset="0.6214" style="stop-color:#4A4A4A"/>
						<stop  offset="0.8847" style="stop-color:#4D4D4D"/>
					</linearGradient>
					<path class="st44" d="M79.2,35.4c0,0-1.2-0.6-2.9-1.5c-1.1-2.1-2-4.6-2.2-7.4c0,0,0,0,0,0V0c0,0,0,0,0,0s0,0,0,0
						C74.3,0.5,81,13.2,79.2,35.4z"/>
				</g>
			</mask>
			<linearGradient id="SVGID_35_" gradientUnits="userSpaceOnUse" x1="77.7562" y1="34.4229" x2="74.4303" y2="2.2183">
				<stop  offset="0" style="stop-color:#808285"/>
				<stop  offset="4.030292e-02" style="stop-color:#8F9194"/>
				<stop  offset="0.1465" style="stop-color:#B1B3B4"/>
				<stop  offset="0.2598" style="stop-color:#CECED0"/>
				<stop  offset="0.3809" style="stop-color:#E4E4E5"/>
				<stop  offset="0.5135" style="stop-color:#F3F3F4"/>
				<stop  offset="0.6662" style="stop-color:#FCFCFC"/>
				<stop  offset="0.8847" style="stop-color:#FFFFFF"/>
			</linearGradient>
			<path class="st45" d="M79.2,35.4c0,0-1.2-0.6-2.9-1.5c-1.1-2.1-2-4.6-2.2-7.4c0,0,0,0,0,0V0c0,0,0,0,0,0s0,0,0,0
				C74.3,0.5,81,13.2,79.2,35.4z"/>
			<defs>
				<filter id="Adobe_OpacityMaskFilter_18_" filterUnits="userSpaceOnUse" x="74.1" y="26.5" width="5.1" height="14.7">
					<feFlood  style="flood-color:white;flood-opacity:1" result="back"/>
					<feBlend  in="SourceGraphic" in2="back" mode="normal"/>
				</filter>
			</defs>
			<mask maskUnits="userSpaceOnUse" x="74.1" y="26.5" width="5.1" height="14.7" id="SVGID_36_">
				<g class="st46">
					<defs>
						<filter id="Adobe_OpacityMaskFilter_19_" filterUnits="userSpaceOnUse" x="74.1" y="26.5" width="5.1" height="14.7">
							<feFlood  style="flood-color:white;flood-opacity:1" result="back"/>
							<feBlend  in="SourceGraphic" in2="back" mode="normal"/>
						</filter>
					</defs>
					<mask maskUnits="userSpaceOnUse" x="74.1" y="26.5" width="5.1" height="14.7" id="SVGID_36_">
						<g class="st47">
						</g>
					</mask>
					<linearGradient id="SVGID_37_" gradientUnits="userSpaceOnUse" x1="76.8394" y1="38.4962" x2="71.656" y2="23.6941">
						<stop  offset="0.1153" style="stop-color:#666666"/>
						<stop  offset="0.2813" style="stop-color:#626262"/>
						<stop  offset="0.4601" style="stop-color:#555555"/>
						<stop  offset="0.645" style="stop-color:#3F3F3F"/>
						<stop  offset="0.8327" style="stop-color:#212121"/>
						<stop  offset="1" style="stop-color:#000000"/>
					</linearGradient>
					<path class="st48" d="M79.2,41.2c-0.9-0.4-1.7-1-2.5-1.8c-1.7-1.7-2.6-3.8-2.6-6.2v-6.7h0c0,0,0,0,0,0
						C74.1,27.3,74.6,36.9,79.2,41.2z"/>
				</g>
			</mask>
			<linearGradient id="SVGID_38_" gradientUnits="userSpaceOnUse" x1="76.8394" y1="38.4962" x2="71.656" y2="23.6941">
				<stop  offset="0.1153" style="stop-color:#FFFFFF"/>
				<stop  offset="0.2173" style="stop-color:#FBFEFD"/>
				<stop  offset="0.3273" style="stop-color:#EEF9F9"/>
				<stop  offset="0.4411" style="stop-color:#D8F2F1"/>
				<stop  offset="0.5575" style="stop-color:#BAE8E6"/>
				<stop  offset="0.6759" style="stop-color:#93DCD8"/>
				<stop  offset="0.7961" style="stop-color:#63CCC7"/>
				<stop  offset="0.9152" style="stop-color:#2CBAB3"/>
				<stop  offset="1" style="stop-color:#00ACA3"/>
			</linearGradient>
			<path class="st49" d="M79.2,41.2c-0.9-0.4-1.7-1-2.5-1.8c-1.7-1.7-2.6-3.8-2.6-6.2v-6.7h0c0,0,0,0,0,0
				C74.1,27.3,74.6,36.9,79.2,41.2z"/>
			<defs>
				<filter id="Adobe_OpacityMaskFilter_20_" filterUnits="userSpaceOnUse" x="74.1" y="26.5" width="8.8" height="15.5">
					<feFlood  style="flood-color:white;flood-opacity:1" result="back"/>
					<feBlend  in="SourceGraphic" in2="back" mode="normal"/>
				</filter>
			</defs>
			<mask maskUnits="userSpaceOnUse" x="74.1" y="26.5" width="8.8" height="15.5" id="SVGID_39_">
				<g class="st50">
					<defs>
						<filter id="Adobe_OpacityMaskFilter_21_" filterUnits="userSpaceOnUse" x="74.1" y="26.5" width="8.8" height="15.5">
							<feFlood  style="flood-color:white;flood-opacity:1" result="back"/>
							<feBlend  in="SourceGraphic" in2="back" mode="normal"/>
						</filter>
					</defs>
					<mask maskUnits="userSpaceOnUse" x="74.1" y="26.5" width="8.8" height="15.5" id="SVGID_39_">
						<g class="st51">
						</g>
					</mask>
					<linearGradient id="SVGID_40_" gradientUnits="userSpaceOnUse" x1="73.2505" y1="27.4424" x2="84.4554" y2="43.662">
						<stop  offset="0" style="stop-color:#808080"/>
						<stop  offset="0.1774" style="stop-color:#7C7C7C"/>
						<stop  offset="0.3547" style="stop-color:#6F6F6F"/>
						<stop  offset="0.5321" style="stop-color:#5B5B5B"/>
						<stop  offset="0.7097" style="stop-color:#3F3F3F"/>
						<stop  offset="0.8857" style="stop-color:#1C1C1C"/>
						<stop  offset="1" style="stop-color:#000000"/>
					</linearGradient>
					<path class="st52" d="M82.9,39.1v3c0,0-7.9-6.1-8.8-15.5C74.3,27,77.6,35.3,82.9,39.1z"/>
				</g>
			</mask>
			<linearGradient id="SVGID_41_" gradientUnits="userSpaceOnUse" x1="73.2505" y1="27.4424" x2="84.4554" y2="43.662">
				<stop  offset="0" style="stop-color:#000000"/>
				<stop  offset="0.1255" style="stop-color:#040404"/>
				<stop  offset="0.251" style="stop-color:#101010"/>
				<stop  offset="0.3767" style="stop-color:#242424"/>
				<stop  offset="0.5025" style="stop-color:#404040"/>
				<stop  offset="0.6284" style="stop-color:#656565"/>
				<stop  offset="0.7545" style="stop-color:#919191"/>
				<stop  offset="0.8783" style="stop-color:#C5C5C5"/>
				<stop  offset="1" style="stop-color:#FFFFFF"/>
			</linearGradient>
			<path class="st53" d="M82.9,39.1v3c0,0-7.9-6.1-8.8-15.5C74.3,27,77.6,35.3,82.9,39.1z"/>
			<defs>
				<filter id="Adobe_OpacityMaskFilter_22_" filterUnits="userSpaceOnUse" x="74.1" y="0" width="8.8" height="10.5">
					<feFlood  style="flood-color:white;flood-opacity:1" result="back"/>
					<feBlend  in="SourceGraphic" in2="back" mode="normal"/>
				</filter>
			</defs>
			<mask maskUnits="userSpaceOnUse" x="74.1" y="0" width="8.8" height="10.5" id="SVGID_42_">
				<g class="st54">
					<defs>
						<filter id="Adobe_OpacityMaskFilter_23_" filterUnits="userSpaceOnUse" x="74.1" y="0" width="8.8" height="10.5">
							<feFlood  style="flood-color:white;flood-opacity:1" result="back"/>
							<feBlend  in="SourceGraphic" in2="back" mode="normal"/>
						</filter>
					</defs>
					<mask maskUnits="userSpaceOnUse" x="74.1" y="0" width="8.8" height="10.5" id="SVGID_42_">
						<g class="st55">
						</g>
					</mask>
					<linearGradient id="SVGID_43_" gradientUnits="userSpaceOnUse" x1="76.4946" y1="-1.1418" x2="81.8882" y2="11.2474">
						<stop  offset="0.1153" style="stop-color:#666666"/>
						<stop  offset="0.2813" style="stop-color:#626262"/>
						<stop  offset="0.4601" style="stop-color:#555555"/>
						<stop  offset="0.645" style="stop-color:#3F3F3F"/>
						<stop  offset="0.8327" style="stop-color:#212121"/>
						<stop  offset="1" style="stop-color:#000000"/>
					</linearGradient>
					<path class="st56" d="M82.9,8.8v1.7C82.2,2.6,74.1,0,74.1,0c2.4,0,4.5,0.9,6.2,2.6C82,4.3,82.9,6.4,82.9,8.8z"/>
				</g>
			</mask>
			<linearGradient id="SVGID_44_" gradientUnits="userSpaceOnUse" x1="76.4946" y1="-1.1418" x2="81.8882" y2="11.2474">
				<stop  offset="0.1153" style="stop-color:#FFFFFF"/>
				<stop  offset="0.2763" style="stop-color:#FBFBFB"/>
				<stop  offset="0.4498" style="stop-color:#EEEEEE"/>
				<stop  offset="0.6292" style="stop-color:#D8D9DA"/>
				<stop  offset="0.8125" style="stop-color:#BABBBD"/>
				<stop  offset="0.9974" style="stop-color:#949699"/>
				<stop  offset="1" style="stop-color:#939598"/>
			</linearGradient>
			<path class="st57" d="M82.9,8.8v1.7C82.2,2.6,74.1,0,74.1,0c2.4,0,4.5,0.9,6.2,2.6C82,4.3,82.9,6.4,82.9,8.8z"/>
			<defs>
				<filter id="Adobe_OpacityMaskFilter_24_" filterUnits="userSpaceOnUse" x="74.1" y="0" width="8.8" height="21.1">
					<feFlood  style="flood-color:white;flood-opacity:1" result="back"/>
					<feBlend  in="SourceGraphic" in2="back" mode="normal"/>
				</filter>
			</defs>
			<mask maskUnits="userSpaceOnUse" x="74.1" y="0" width="8.8" height="21.1" id="SVGID_45_">
				<g class="st58">
					<defs>
						<filter id="Adobe_OpacityMaskFilter_25_" filterUnits="userSpaceOnUse" x="74.1" y="0" width="8.8" height="21.1">
							<feFlood  style="flood-color:white;flood-opacity:1" result="back"/>
							<feBlend  in="SourceGraphic" in2="back" mode="normal"/>
						</filter>
					</defs>
					<mask maskUnits="userSpaceOnUse" x="74.1" y="0" width="8.8" height="21.1" id="SVGID_45_">
						<g class="st59">
						</g>
					</mask>
					<linearGradient id="SVGID_46_" gradientUnits="userSpaceOnUse" x1="84.9737" y1="21.6947" x2="74.3163" y2="-0.7931">
						<stop  offset="0" style="stop-color:#808080"/>
						<stop  offset="0.1774" style="stop-color:#7C7C7C"/>
						<stop  offset="0.3547" style="stop-color:#6F6F6F"/>
						<stop  offset="0.5321" style="stop-color:#5B5B5B"/>
						<stop  offset="0.7097" style="stop-color:#3F3F3F"/>
						<stop  offset="0.8857" style="stop-color:#1C1C1C"/>
						<stop  offset="1" style="stop-color:#000000"/>
					</linearGradient>
					<path class="st60" d="M82.9,14.7v6.4c-0.3-8-8.4-20.4-8.8-21.1C74.5,0.4,81.1,7,82.9,14.7z"/>
				</g>
			</mask>
			<linearGradient id="SVGID_47_" gradientUnits="userSpaceOnUse" x1="84.9737" y1="21.6947" x2="74.3163" y2="-0.7931">
				<stop  offset="0" style="stop-color:#D1D3D4"/>
				<stop  offset="0.2951" style="stop-color:#D5D7D8"/>
				<stop  offset="0.59" style="stop-color:#E1E2E3"/>
				<stop  offset="0.8841" style="stop-color:#F5F5F6"/>
				<stop  offset="1" style="stop-color:#FFFFFF"/>
			</linearGradient>
			<path class="st61" d="M82.9,14.7v6.4c-0.3-8-8.4-20.4-8.8-21.1C74.5,0.4,81.1,7,82.9,14.7z"/>
		</g>
	</g>
	<g>
		<path class="st0" d="M117.1,7.2h1.7c-1.1,2.6-2.2,5.2-3.3,7.7s-2.2,5.1-3.3,7.7l-3.7-8.8c0-0.1-0.1-0.2-0.1-0.4
			c0-0.1-0.1-0.2-0.1-0.4c-0.2,0.8-0.4,1.6-0.8,2.4c-0.3,0.8-0.6,1.6-1,2.4c-0.4,0.8-0.7,1.6-1.1,2.4c-0.4,0.8-0.7,1.6-1,2.3
			c-1.1-2.6-2.2-5.2-3.3-7.7c-1.1-2.6-2.2-5.1-3.3-7.7h1.7c0.8,1.8,1.5,3.6,2.3,5.4c0.8,1.8,1.5,3.6,2.3,5.4l0.2,0.7
			c0.2-0.6,0.4-1.3,0.6-1.9c0.2-0.6,0.5-1.2,0.8-1.9c0.3-0.6,0.6-1.2,0.8-1.9c0.3-0.6,0.6-1.2,0.8-1.8c-0.3-0.7-0.6-1.4-0.9-2
			c-0.3-0.7-0.6-1.4-0.9-2h1.7c0.8,1.8,1.5,3.6,2.3,5.4c0.8,1.8,1.5,3.6,2.3,5.4l0.2,0.7l0.2-0.7c0.8-1.8,1.5-3.6,2.3-5.4
			C115.6,10.8,116.4,9,117.1,7.2z"/>
		<path class="st0" d="M127.5,7.2h1.7v14.7h-1.7V7.2z"/>
		<path class="st0" d="M151.5,7.2v15.4c-1.8-1.9-3.6-3.8-5.4-5.7s-3.6-3.8-5.4-5.7c-0.1-0.1-0.1-0.2-0.2-0.3
			c-0.1-0.1-0.1-0.2-0.2-0.3c0,0.1,0,0.2,0,0.3c0,0.1,0,0.2,0,0.3v10.7h-1.7V6.5c1.8,2,3.6,3.9,5.4,5.8c1.8,1.9,3.6,3.9,5.4,5.8
			c0.1,0.1,0.1,0.2,0.2,0.3c0.1,0.1,0.1,0.2,0.2,0.3c0-0.1,0-0.2,0-0.3c0-0.1,0-0.2,0-0.3V7.2H151.5z"/>
		<path class="st0" d="M173.9,7.2v15.4c-1.8-1.9-3.6-3.8-5.4-5.7s-3.6-3.8-5.4-5.7c-0.1-0.1-0.1-0.2-0.2-0.3
			c-0.1-0.1-0.1-0.2-0.2-0.3c0,0.1,0,0.2,0,0.3c0,0.1,0,0.2,0,0.3v10.7H161V6.5c1.8,2,3.6,3.9,5.4,5.8c1.8,1.9,3.6,3.9,5.4,5.8
			c0.1,0.1,0.1,0.2,0.2,0.3c0.1,0.1,0.1,0.2,0.2,0.3c0-0.1,0-0.2,0-0.3c0-0.1,0-0.2,0-0.3V7.2H173.9z"/>
		<path class="st0" d="M183.4,7.2h1.7v14.7h-1.7V7.2z"/>
		<path class="st0" d="M207.4,7.2v15.4c-1.8-1.9-3.6-3.8-5.4-5.7s-3.6-3.8-5.4-5.7c-0.1-0.1-0.1-0.2-0.2-0.3
			c-0.1-0.1-0.1-0.2-0.2-0.3c0,0.1,0,0.2,0,0.3c0,0.1,0,0.2,0,0.3v10.7h-1.7V6.5c1.8,2,3.6,3.9,5.4,5.8c1.8,1.9,3.6,3.9,5.4,5.8
			c0.1,0.1,0.1,0.2,0.2,0.3c0.1,0.1,0.1,0.2,0.2,0.3c0-0.1,0-0.2,0-0.3s0-0.2,0-0.3V7.2H207.4z"/>
		<path class="st0" d="M223.5,17.2v-1.7h2.9c0.4,0,0.7,0.1,0.8,0.3c0.1,0.2,0.2,0.5,0.2,1V21c-0.6,0.3-1.2,0.6-1.8,0.8
			c-0.6,0.2-1.3,0.3-2,0.3c-1,0-2-0.2-2.9-0.6c-0.9-0.4-1.7-0.9-2.4-1.6s-1.2-1.5-1.6-2.4c-0.4-0.9-0.6-1.9-0.6-2.9
			c0-1,0.2-2,0.6-2.9c0.4-0.9,0.9-1.7,1.6-2.4c0.7-0.7,1.5-1.2,2.4-1.6c0.9-0.4,1.9-0.6,2.9-0.6c0.7,0,1.4,0.1,2,0.3
			c0.6,0.2,1.2,0.4,1.8,0.8c-0.2,0.2-0.3,0.5-0.5,0.7c-0.2,0.2-0.3,0.5-0.5,0.7c-0.4-0.3-0.9-0.4-1.4-0.6c-0.5-0.1-1-0.2-1.5-0.2
			c-0.8,0-1.5,0.2-2.2,0.5c-0.7,0.3-1.3,0.7-1.8,1.3c-0.5,0.5-0.9,1.2-1.2,1.9c-0.3,0.7-0.5,1.5-0.5,2.3c0,0.8,0.2,1.6,0.5,2.3
			s0.7,1.3,1.2,1.9c0.5,0.5,1.1,0.9,1.8,1.3c0.7,0.3,1.4,0.5,2.2,0.5c0.7,0,1.4-0.1,2.1-0.4v-2.1c0-0.2,0-0.4-0.1-0.5
			c0-0.1-0.2-0.1-0.4-0.1H223.5z"/>
		<path class="st0" d="M235.3,20.8c0-0.3,0.1-0.6,0.3-0.8c0.2-0.2,0.5-0.3,0.8-0.3c0.3,0,0.5,0.1,0.7,0.3c0.2,0.2,0.3,0.5,0.3,0.8
			c0,0.3-0.1,0.6-0.3,0.8c-0.2,0.2-0.5,0.3-0.7,0.3c-0.3,0-0.5-0.1-0.8-0.3C235.4,21.4,235.3,21.1,235.3,20.8z"/>
		<path class="st0" d="M245.4,7.2h1.7v14.7h-1.7V7.2z"/>
	</g>
</g>
</svg>
